<svg xmlns="http://www.w3.org/2000/svg" viewBox="0 0 578.3 137.79"><defs><style>.a{fill:#9d6536;}.b{fill:#472712;}</style></defs><title>Smakota</title><path class="a" d="M62.83,15.77c-13.5,3-23.3,8.3-33,17.9-12.6,12.4-19.4,28.4-20.3,47.2-1,24.9,8.1,45.9,26.6,61,6,5,17.8,11.1,19,9.9.4-.4.7-14.7.7-31.8V88.77l2.3-.3a7.34,7.34,0,0,0,4-3c1.5-2.3,1.7-4.9,1.5-18.6-.3-16.8-.7-20-2.6-19.3-.8.2-1.4,5-1.8,14.3-.3,7.6-.7,14-.8,14.1s-1,.3-2,.3c-1.8,0-1.9-1-2.3-13.5-.3-12.8-1.4-17.3-3.5-15.1-.5.4-1,6.9-1.3,14.4-.5,13.3-.6,13.7-2.7,14-2.3.3-2.3.2-2.3-12.6,0-7.2-.3-13.7-.6-14.6-.9-2.3-3.1-1.9-3.8.6-1,3.9-.7,31.3.4,34.5a8.8,8.8,0,0,0,7.4,5.3c.9,0,1.5,2.5,1.9,8.2,1,12.8.8,46.8-.2,46.8-2.4,0-14.1-9.2-18.4-14.6-5.6-6.8-11.7-18.4-14.3-27-2.5-8.2-2.5-27.5,0-35.9,8.6-28.6,31.6-46.5,59.6-46.5,16.1,0,28.1,5.2,40.1,17.1,6.3,6.1,8.6,9.4,12.3,17,6.2,12.7,7.9,20.8,7.3,33.4q-1.2,26.25-18.9,44.3c-5.4,5.5-16.8,13.2-19.5,13.2-1,0-1.3-6-1.3-28,0-24.2.2-28,1.5-28,.8,0,3.7-2.1,6.4-4.8,5.9-5.7,7.5-10.6,6.9-20.8-.5-8-4.1-16.9-8.4-20.9-7.6-7.1-18.9-2.5-24.6,10-3,6.7-3.2,20.2-.4,25.5,2.6,4.9,5.5,7.9,9.8,10.1l3.8,1.9-.2,29.9c-.1,16.4.2,30.3.6,30.9,1.2,1.9,3.5,1.4,12.1-2.7,14.1-6.9,26.3-20.1,32.8-35.7,4.1-9.7,5-15.9,4.5-30-.8-21.3-6.7-35.2-20.8-49.5C105.13,17.87,83.23,11.17,62.83,15.77Z" transform="translate(-9.46 -14.34)"/><path class="b" d="M193.08,128.92q-8.81,0-14.88-3.41a27.49,27.49,0,0,1-9.77-9,39.54,39.54,0,0,1-5.37-12.56,59,59,0,0,1-1.68-14,56.63,56.63,0,0,1,1.7-13.58,41.52,41.52,0,0,1,5.46-12.69,28.59,28.59,0,0,1,9.8-9.32,28.9,28.9,0,0,1,14.74-3.51,30,30,0,0,1,12.47,2.4,26.84,26.84,0,0,1,8.78,6.21,29.76,29.76,0,0,1,5.32,8l-12.53,5.83a33.39,33.39,0,0,0-3.78-4.83,14,14,0,0,0-4.4-3.13,14.15,14.15,0,0,0-5.86-1.11,13.63,13.63,0,0,0-8.15,2.35,17.17,17.17,0,0,0-5.3,6.18,30.53,30.53,0,0,0-2.86,8.37,47.87,47.87,0,0,0-.86,8.86,43.22,43.22,0,0,0,1,9.12,29,29,0,0,0,3.08,8.27,17.62,17.62,0,0,0,5.34,6,13.31,13.31,0,0,0,7.78,2.24,12.5,12.5,0,0,0,8.18-2.72,27.08,27.08,0,0,0,5.91-7l12.8,4.81a38.6,38.6,0,0,1-6.1,9.39,26.28,26.28,0,0,1-8.8,6.54A28.35,28.35,0,0,1,193.08,128.92Z" transform="translate(-9.46 -14.34)"/><path class="b" d="M261.66,128.7l-13.5-26.3c-.4-.83-.82-1.73-1.27-2.73s-.86-1.93-1.22-2.83c.08.79.13,1.65.17,2.56s0,1.8,0,2.62v25.71H232.71V72.54h12.48l14.42,28.29c.46.91.87,1.71,1.21,2.41s.62,1.34.84,1.92c.25-.58.55-1.22.89-1.92s.73-1.5,1.16-2.41l14.47-28.29H290.6v55.19H277.48V103c0-.8,0-1.78,0-3s.09-2.15.17-2.94c-.4.9-.83,1.85-1.3,2.86s-.94,1.93-1.4,2.76Z" transform="translate(-9.46 -14.34)"/><path class="b" d="M323.76,129q-9,0-14.29-4.88t-5.26-13.26a16.65,16.65,0,0,1,2.73-9.48,17.83,17.83,0,0,1,7.61-6.32A27.25,27.25,0,0,1,326,92.84a35.74,35.74,0,0,1,7,.68,24.41,24.41,0,0,1,5.91,1.92V92c0-3.1-.88-5.43-2.62-7s-4.31-2.35-7.7-2.35a25.38,25.38,0,0,0-8.31,1.46,38.32,38.32,0,0,0-8.64,4.32l-4.05-10.64a38.85,38.85,0,0,1,10.58-4.84,42,42,0,0,1,11.77-1.7q11.13,0,16.64,5.27t5.5,15.69v35.53H338.88V123.3a18.76,18.76,0,0,1-6.67,4.27A23.8,23.8,0,0,1,323.76,129Zm3.13-11.39a16.33,16.33,0,0,0,6.45-1.32,17.6,17.6,0,0,0,5.54-3.76V106a23,23,0,0,0-5.16-1.76,26.55,26.55,0,0,0-5.64-.62,14.13,14.13,0,0,0-7.91,1.92,6,6,0,0,0-2.89,5.32,5.72,5.72,0,0,0,2.54,5A12.14,12.14,0,0,0,326.89,117.63Z" transform="translate(-9.46 -14.34)"/><path class="b" d="M367.87,127.73V72.54h13.5v55.19Zm9.78-7.56V102.78l24.08-30.24h14.64Zm27.21,7.56-16-29.49,8.8-10.8,22,40.29Z" transform="translate(-9.46 -14.34)"/><path class="b" d="M452.54,129q-11.66,0-18.41-7.72t-6.75-21.11a35.66,35.66,0,0,1,3.08-15.37,23.3,23.3,0,0,1,8.72-10,26.95,26.95,0,0,1,26.65,0,22.88,22.88,0,0,1,8.64,10,36.21,36.21,0,0,1,3,15.39,36.68,36.68,0,0,1-3,15.45,22.46,22.46,0,0,1-8.62,10A24.81,24.81,0,0,1,452.54,129Zm0-12.9a9.85,9.85,0,0,0,8.48-4.21q3-4.22,3-11.78T461,88.33a10.62,10.62,0,0,0-17,0q-3.08,4.27-3.08,11.83T444,111.88A10,10,0,0,0,452.54,116.12Z" transform="translate(-9.46 -14.34)"/><path class="b" d="M502.22,127.73V84.37H486.08V72.54h45.74V84.37H515.67v43.36Z" transform="translate(-9.46 -14.34)"/><path class="b" d="M559.46,129q-9,0-14.28-4.88t-5.27-13.26a16.65,16.65,0,0,1,2.73-9.48,17.92,17.92,0,0,1,7.62-6.32,27.18,27.18,0,0,1,11.42-2.24,35.56,35.56,0,0,1,7,.68,24.12,24.12,0,0,1,5.91,1.92V92q0-4.65-2.62-7c-1.74-1.57-4.31-2.35-7.69-2.35A25.48,25.48,0,0,0,556,84.1a38.73,38.73,0,0,0-8.64,4.32l-4-10.64a39.05,39.05,0,0,1,10.59-4.84,41.93,41.93,0,0,1,11.77-1.7q11.11,0,16.63,5.27t5.51,15.69v35.53H574.58V123.3a18.67,18.67,0,0,1-6.67,4.27A23.76,23.76,0,0,1,559.46,129Zm3.14-11.39a16.33,16.33,0,0,0,6.45-1.32,17.56,17.56,0,0,0,5.53-3.76V106a22.93,22.93,0,0,0-5.15-1.76,26.64,26.64,0,0,0-5.65-.62,14.15,14.15,0,0,0-7.91,1.92,6.06,6.06,0,0,0-2.89,5.32,5.75,5.75,0,0,0,2.54,5A12.15,12.15,0,0,0,562.6,117.63Z" transform="translate(-9.46 -14.34)"/></svg>